<svg width="201" height="263" viewBox="0 0 201 263" fill="none" xmlns="http://www.w3.org/2000/svg">
<path d="M136.538 6.80728L136.585 6.76333L136.63 6.71808C137.621 5.72935 138.911 5.21497 140.215 5.23128C141.52 5.24759 142.802 5.79462 143.775 6.81199L143.791 6.82906L143.807 6.84595C145.678 8.76214 145.979 11.9925 144.395 14.3512C144.393 14.354 144.391 14.3568 144.389 14.3595L84.037 102.954L79.7418 109.259L87.3379 109.968L189.086 119.463L189.094 119.463L189.102 119.464C195.823 120.068 199.205 129.121 193.849 134.241C193.846 134.244 193.843 134.247 193.84 134.25L64.4618 256.191L64.4263 256.225L64.3916 256.259C62.3177 258.3 59.2684 258.279 57.1924 256.152C55.3214 254.236 55.0212 251.005 56.6053 248.646C56.607 248.644 56.6087 248.641 56.6104 248.639L116.963 160.044L121.258 153.739L113.662 153.03L11.9135 143.536L11.9057 143.535L11.8979 143.534C5.17659 142.931 1.79455 133.878 7.15089 128.757C7.15377 128.754 7.15664 128.752 7.15952 128.749L136.538 6.80728Z" fill="white" stroke="white" stroke-width="9"/>
</svg>
